# xmcd CD database file
#
# Track frame offsets:
#	150
#	26998
#	44799
#	64773
#	90949
#	110698
#	124632
#	140977
#	155016
#	172948
#	198016
#	213882
#	229384
#	242266
#	257289
#
# Disc length: 3701 seconds
#
# Revision: 8
# Processed by: cddbd v1.5.2PL0 Copyright (c) Steve Scherf et al.
# Submitted via: CDex 1.70beta2
#
DISCID=cd0e730f
DTITLE=Various Artist - The Best Smooth Jazz... Ever 2.4
DYEAR=2005
DGENRE=Jazz
TTITLE0=Gabin - La Maison
TTITLE1=Ive Mendes - If You Leave Me Now
TTITLE2=Beady Belle - Game
TTITLE3=Us 3 - Come On Everybody (Get Down)
TTITLE4=Flabby - Jazz 4 Two
TTITLE5=Etta James - I Just Wanna Make Love To You
TTITLE6=Lou Rawls and Dianne Reeves - Al Last
TTITLE7=Nancy Wilson - All Night Long
TTITLE8=Holly Cole - Make It Go Away
TTITLE9=Bonnie Raitt - I Can't Make You Love Me
TTITLE10=Dinah Washington - Drinkin' Again
TTITLE11=Nina Simone - Wild Is The Wind
TTITLE12=Peggy Lee - As Time Goes By
TTITLE13=Julie London - The Thrill Is Gone
TTITLE14=Jimmy Smith - Summertime
EXTD=YEAR: 2005
EXTT0=
EXTT1=
EXTT2=
EXTT3=
EXTT4=
EXTT5=
EXTT6=
EXTT7=
EXTT8=
EXTT9=
EXTT10=
EXTT11=
EXTT12=
EXTT13=
EXTT14=
PLAYORDER=
